<svg width="777" height="969" viewBox="0 0 777 969" fill="none" xmlns="http://www.w3.org/2000/svg">
<path d="M349.563 37.6672C371.273 16.6653 405.727 16.6653 427.437 37.6672L464.868 73.8783C477.282 85.8881 494.544 91.4969 511.647 89.0778L563.214 81.784C593.122 77.5537 620.996 97.8052 626.215 127.557L635.213 178.854C638.197 195.867 648.866 210.551 664.124 218.646L710.13 243.056C736.812 257.213 747.459 289.981 734.194 317.118L711.322 363.907C703.736 379.425 703.736 397.575 711.322 413.093L734.194 459.882C747.459 487.019 736.812 519.787 710.13 533.944L664.124 558.354C648.866 566.449 638.197 581.133 635.213 598.146L626.215 649.443C620.996 679.195 593.122 699.446 563.214 695.216L511.647 687.922C494.544 685.503 477.282 691.112 464.868 703.122L427.437 739.333C405.727 760.335 371.273 760.335 349.563 739.333L312.132 703.122C299.718 691.112 282.456 685.503 265.353 687.922L213.786 695.216C183.878 699.446 156.004 679.195 150.785 649.443L141.787 598.146C138.803 581.133 128.134 566.449 112.876 558.354L66.8702 533.944C40.1876 519.787 29.5408 487.019 42.8062 459.882L65.6781 413.093C73.2638 397.575 73.2638 379.425 65.6781 363.907L42.8062 317.118C29.5408 289.981 40.1876 257.213 66.8703 243.056L112.876 218.646C128.134 210.551 138.803 195.867 141.787 178.854L150.785 127.557C156.004 97.8051 183.878 77.5537 213.786 81.784L265.353 89.0778C282.456 91.4969 299.718 85.8881 312.132 73.8783L349.563 37.6672Z" stroke="#0084FE" stroke-width="40"/>
<circle cx="388.5" cy="388.5" r="242.5" fill="white"/>
<circle cx="388.5" cy="388.5" r="242.5" stroke="#FFC700" stroke-width="40"/>
<path d="M339.68 437.57C335.102 433.213 338.186 425.5 344.506 425.5H434.461C440.646 425.5 443.792 432.933 439.487 437.373L403 475V493.225L438.638 504.565C444.954 506.574 448.444 513.323 446.435 519.638C444.425 525.954 437.677 529.445 431.361 527.435L391 514.593L350.638 527.435C344.323 529.445 337.574 525.954 335.565 519.638C333.555 513.323 337.046 506.574 343.361 504.565L379 493.225V475L339.68 437.57Z" fill="#0084FE"/>
<path d="M179.96 932.392V883.048H161.336V949H210.68V932.392H179.96ZM218.898 949H237.523V883.048H218.898V949ZM250.211 949H268.835V931.528L275.651 924.04L292.643 949H314.915L288.611 910.6L312.995 883.048H291.011L268.835 909.064V883.048H250.211V949ZM375.299 899.656V883.048H322.211V949H375.299V932.392H340.835V923.656H372.227V907.048H340.835V899.656H375.299ZM405.429 932.392V883.048H386.805V949H436.149V932.392H405.429ZM444.367 949H462.991V883.048H444.367V949ZM507.552 950.152C527.04 950.152 543.456 934.504 543.456 915.976C543.456 897.448 527.04 881.896 507.552 881.896C488.064 881.896 471.648 897.448 471.648 915.976C471.648 934.504 488.064 950.152 507.552 950.152ZM507.552 933.256C498.528 933.256 490.848 925.384 490.848 915.976C490.848 906.664 498.528 898.792 507.552 898.792C516.576 898.792 524.256 906.664 524.256 915.976C524.256 925.384 516.576 933.256 507.552 933.256ZM552.086 949H570.71V913.672L596.438 949H615.062V883.048H596.438V918.376L570.71 883.048H552.086V949Z" fill="#0084FE"/>
<path fill-rule="evenodd" clip-rule="evenodd" d="M449.182 336.352C448.412 339.103 448 342.003 448 345C448 362.673 462.327 377 480 377C497.673 377 512 362.673 512 345C512 336.026 508.306 327.915 502.356 322.104L449.182 336.352Z" fill="#0084FE"/>
<path fill-rule="evenodd" clip-rule="evenodd" d="M326.818 336.352C327.588 339.103 328 342.003 328 345C328 362.673 313.673 377 296 377C278.327 377 264 362.673 264 345C264 336.026 267.694 327.915 273.644 322.104L326.818 336.352Z" fill="#0084FE"/>
</svg>
