<svg width="1283" height="258" viewBox="0 0 1283 258" fill="none" xmlns="http://www.w3.org/2000/svg">
<path d="M939.881 134.828C938.042 133.085 939.281 130 941.82 130H977.961C980.446 130 981.71 132.973 979.98 134.749L965.321 149.799V157.089L979.639 161.625C982.177 162.429 983.579 165.128 982.772 167.654C981.964 170.18 979.253 171.577 976.716 170.773L960.5 165.636L944.284 170.773C941.747 171.577 939.036 170.18 938.228 167.654C937.421 165.128 938.823 162.429 941.361 161.625L955.679 157.089V149.799L939.881 134.828Z" fill="#0084FE"/>
<path fill-rule="evenodd" clip-rule="evenodd" d="M983.924 94.6876C983.616 95.7857 983.452 96.9436 983.452 98.14C983.452 105.195 989.171 110.914 996.226 110.914C1003.28 110.914 1009 105.195 1009 98.14C1009 94.5576 1007.53 91.3196 1005.15 89L983.924 94.6876Z" fill="#0084FE"/>
<path fill-rule="evenodd" clip-rule="evenodd" d="M935.076 94.6876C935.384 95.7857 935.548 96.9436 935.548 98.14C935.548 105.195 929.829 110.914 922.774 110.914C915.719 110.914 910 105.195 910 98.14C910 94.5576 911.475 91.3196 913.85 89L935.076 94.6876Z" fill="#0084FE"/>
<path d="M66.56 161.712V30.128H16.896V206H148.48V161.712H66.56ZM170.396 206H220.06V30.128H170.396V206ZM253.896 206H303.56V159.408L321.736 139.44L367.048 206H426.44L356.296 103.6L421.32 30.128H362.696L303.56 99.504V30.128H253.896V206ZM587.464 74.416V30.128H445.896V206H587.464V161.712H495.56V138.416H579.272V94.128H495.56V74.416H587.464ZM667.81 161.712V30.128H618.146V206H749.73V161.712H667.81ZM771.646 206H821.31V30.128H771.646V206ZM1097.87 206H1147.53V111.792L1216.14 206H1265.8V30.128H1216.14V124.336L1147.53 30.128H1097.87V206Z" fill="#0084FE"/>
<path d="M932.987 24.5944C948.265 11.5747 970.735 11.5747 986.013 24.5944V24.5944C992.56 30.1737 1000.7 33.5455 1009.27 34.2297V34.2297C1029.28 35.8265 1045.17 51.7157 1046.77 71.7251V71.7251C1047.45 80.2996 1050.83 88.4398 1056.41 94.9867V94.9867C1069.43 110.265 1069.43 132.735 1056.41 148.013V148.013C1050.83 154.56 1047.45 162.7 1046.77 171.275V171.275C1045.17 191.284 1029.28 207.174 1009.27 208.77V208.77C1000.7 209.455 992.56 212.826 986.013 218.406V218.406C970.735 231.425 948.265 231.425 932.987 218.406V218.406C926.44 212.826 918.3 209.455 909.725 208.77V208.77C889.716 207.174 873.826 191.284 872.23 171.275V171.275C871.545 162.7 868.174 154.56 862.594 148.013V148.013C849.575 132.735 849.575 110.265 862.594 94.9867V94.9867C868.174 88.4398 871.545 80.2997 872.23 71.7251V71.7251C873.826 51.7156 889.716 35.8265 909.725 34.2297V34.2297C918.3 33.5455 926.44 30.1737 932.987 24.5944V24.5944Z" stroke="#FFC700" stroke-width="28"/>
</svg>
