<svg width="164" height="170" viewBox="0 0 164 170" fill="none" xmlns="http://www.w3.org/2000/svg">
<path d="M109.267 75.4355C109.267 79.3213 106.104 82.4714 102.202 82.4714C98.3 82.4714 95.1368 79.3213 95.1368 75.4355C95.1368 71.5496 98.3 68.3995 102.202 68.3995C106.104 68.3995 109.267 71.5496 109.267 75.4355Z" fill="#0084FE"/>
<path d="M72.2866 93.1354C70.8913 93.1354 70.2104 94.8312 71.221 95.7893L79.9025 104.019V108.026L72.0339 110.52C70.6396 110.962 69.8689 112.445 70.3125 113.834C70.7562 115.223 72.2462 115.99 73.6406 115.548L82.5519 112.725L91.4632 115.548C92.8576 115.99 94.3476 115.223 94.7913 113.834C95.235 112.445 94.4643 110.962 93.0699 110.52L85.2014 108.026V104.019L93.2572 95.7459C94.2078 94.7697 93.5131 93.1354 92.1477 93.1354H72.2866Z" fill="#0084FE"/>
<path fill-rule="evenodd" clip-rule="evenodd" d="M24.0433 85C24.0433 53.1238 49.9914 27.2829 82 27.2829C114.009 27.2829 139.957 53.1238 139.957 85C139.957 116.876 114.009 142.717 82 142.717C49.9914 142.717 24.0433 116.876 24.0433 85ZM82 36.0779C54.8689 36.0779 32.8748 57.9811 32.8748 85C32.8748 112.019 54.8689 133.922 82 133.922C109.131 133.922 131.125 112.019 131.125 85C131.125 57.9811 109.131 36.0779 82 36.0779Z" fill="#0084FE"/>
<path fill-rule="evenodd" clip-rule="evenodd" d="M70.333 4.70024C76.8381 -1.56675 87.1619 -1.56674 93.6669 4.70025L101.931 12.6621C103.693 14.3597 106.143 15.1525 108.571 14.8106L119.956 13.2068C128.918 11.9445 137.27 17.9876 138.834 26.8654L140.82 38.1443C141.244 40.5491 142.758 42.6247 144.924 43.769L155.081 49.136C163.077 53.3605 166.267 63.1383 162.292 71.2361L157.242 81.5238C156.166 83.7172 156.166 86.2828 157.242 88.4762L162.292 98.764C166.267 106.862 163.077 116.64 155.081 120.864L144.924 126.231C142.758 127.375 141.244 129.451 140.82 131.856L138.834 143.135C137.27 152.012 128.918 158.055 119.956 156.793L108.571 155.189C106.143 154.848 103.693 155.64 101.931 157.338L93.6669 165.3C87.1619 171.567 76.8381 171.567 70.333 165.3L62.0687 157.338C60.3066 155.64 57.8565 154.848 55.4291 155.189L44.0437 156.793C35.0821 158.055 26.73 152.012 25.1662 143.135L23.1795 131.856C22.7559 129.451 21.2417 127.375 19.076 126.231L8.91853 120.864C0.923333 116.64 -2.26687 106.862 1.70796 98.764L6.75779 88.4762C7.83446 86.2828 7.83446 83.7172 6.75779 81.5238L1.70796 71.236C-2.26688 63.1383 0.923345 53.3605 8.91853 49.136L19.076 43.769C21.2417 42.6247 22.7559 40.5491 23.1795 38.1443L25.1662 26.8654C26.73 17.9876 35.0821 11.9445 44.0437 13.2068L55.4291 14.8106C57.8565 15.1525 60.3066 14.3597 62.0687 12.6621L70.333 4.70024ZM87.5264 11.0214C84.4451 8.05284 79.5549 8.05284 76.4735 11.0214L68.2092 18.9833C64.4893 22.567 59.3169 24.2407 54.1922 23.5189L42.8069 21.9151C38.5619 21.3172 34.6056 24.1797 33.8649 28.385L31.8782 39.6639C30.984 44.7407 27.7873 49.1224 23.2153 51.5381L13.0578 56.9051C9.27057 58.9062 7.75942 63.5378 9.64223 67.3736L14.6921 77.6613C16.965 82.292 16.965 87.7081 14.6921 92.3387L9.64223 102.626C7.75941 106.462 9.27057 111.094 13.0578 113.095L23.2153 118.462C27.7873 120.878 30.984 125.259 31.8782 130.336L33.8649 141.615C34.6056 145.82 38.5619 148.683 42.8069 148.085L54.1922 146.481C59.3169 145.759 64.4893 147.433 68.2092 151.017L76.4735 158.979C79.5549 161.947 84.4451 161.947 87.5264 158.979L95.7908 151.017C99.5107 147.433 104.683 145.759 109.808 146.481L121.193 148.085C125.438 148.683 129.394 145.82 130.135 141.615L132.122 130.336C133.016 125.259 136.213 120.878 140.785 118.462L150.942 113.095C154.729 111.094 156.241 106.462 154.358 102.626L149.308 92.3387C147.035 87.7081 147.035 82.292 149.308 77.6613L154.358 67.3736C156.241 63.5378 154.729 58.9062 150.942 56.9051L140.785 51.5381C136.213 49.1224 133.016 44.7407 132.122 39.6639L130.135 28.385C129.394 24.1797 125.438 21.3172 121.193 21.9151L109.808 23.5189C104.683 24.2407 99.5107 22.567 95.7908 18.9833L87.5264 11.0214Z" fill="#0084FE"/>
<path fill-rule="evenodd" clip-rule="evenodd" d="M82.0002 36.0777C54.8691 36.0777 32.875 57.9809 32.875 84.9998C32.875 112.019 54.8691 133.922 82.0002 133.922C109.131 133.922 131.125 112.019 131.125 84.9998C131.125 57.9809 109.131 36.0777 82.0002 36.0777ZM24.0435 84.9998C24.0435 53.1235 49.9916 27.2827 82.0002 27.2827C114.009 27.2827 139.957 53.1235 139.957 84.9998C139.957 116.876 114.009 142.717 82.0002 142.717C49.9916 142.717 24.0435 116.876 24.0435 84.9998Z" fill="#FFC700"/>
<path fill-rule="evenodd" clip-rule="evenodd" d="M47.8051 68.9582C45.4324 68.3969 43.0519 69.8573 42.4883 72.2202C41.9246 74.5831 43.3911 76.9537 45.7638 77.515L54.4251 79.5642L49.4446 82.2238C47.2953 83.3715 46.4873 86.0371 47.6398 88.1774C48.7923 90.3178 51.4689 91.1225 53.6181 89.9747L68.8525 81.8394C70.469 80.9761 71.3813 79.2075 71.1445 77.3961C70.9076 75.5847 69.571 74.1077 67.7863 73.6855L47.8051 68.9582Z" fill="#0084FE"/>
<path fill-rule="evenodd" clip-rule="evenodd" d="M79.6805 79.6684C77.1102 67.1775 85.1946 54.9765 97.7374 52.4169C110.28 49.8572 122.532 57.9081 125.102 70.399C126.274 76.0962 125.226 81.7435 122.552 86.4314C121.804 87.7434 120.927 88.9816 119.935 90.1265L128.654 100.384C130.23 102.238 129.998 105.013 128.137 106.582C126.276 108.151 123.489 107.92 121.914 106.067L112.992 95.5707C111.155 96.5104 109.161 97.2187 107.045 97.6505C94.5024 100.21 82.2508 92.1593 79.6805 79.6684ZM88.3323 77.9028C86.7411 70.1703 91.7457 62.6174 99.5103 61.0328C107.275 59.4483 114.859 64.4321 116.45 72.1646C117.177 75.6964 116.532 79.1803 114.873 82.0869C113.938 83.7258 112.684 85.1758 111.178 86.3389C109.501 87.6342 107.506 88.5787 105.272 89.0346C97.5077 90.6192 89.9234 85.6353 88.3323 77.9028Z" fill="#0084FE"/>
</svg>
